{
  "accessors": [
    {
      "bufferView": 2,
      "componentType": 5126,
      "count": 322,
      "max": [
        12.49409294128418,
        12.49409294128418,
        0.088527247309684753
      ],
      "min": [
        -12.49409294128418,
        -12.49409294128418,
        -0.088527247309684753
      ],
      "type": "VEC3"
    },
    {
      "bufferView": 2,
      "byteOffset": 3864,
      "componentType": 5126,
      "count": 322,
      "max": [
        1,
        1,
        1
      ],
      "min": [
        -1,
        -1,
        -1
      ],
      "type": "VEC3"
    },
    {
      "bufferView": 3,
      "componentType": 5126,
      "count": 322,
      "max": [
        1,
        1,
        0.68595868349075317,
        1
      ],
      "min": [
        -1,
        -1,
        -0.68596214056015015,
        1
      ],
      "type": "VEC4"
    },
    {
      "bufferView": 1,
      "componentType": 5126,
      "count": 322,
      "max": [
        0.99241805076599121,
        0.99242871999740601
      ],
      "min": [
        0.0075819492340087891,
        0.0075925709679722786
      ],
      "type": "VEC2"
    },
    {
      "bufferView": 1,
      "byteOffset": 2576,
      "componentType": 5126,
      "count": 322,
      "max": [
        0.98794513940811157,
        0.98620480298995972
      ],
      "min": [
        0.013810503296554089,
        0.013821081258356571
      ],
      "type": "VEC2"
    },
    {
      "bufferView": 0,
      "componentType": 5125,
      "count": 1344,
      "max": [
        321
      ],
      "min": [
        0
      ],
      "type": "SCALAR"
    },
    {
      "bufferView": 2,
      "byteOffset": 7728,
      "componentType": 5126,
      "count": 322,
      "max": [
        12.49409294128418,
        12.49409294128418,
        0.088527247309684753
      ],
      "min": [
        -12.49409294128418,
        -12.49409294128418,
        -0.088527247309684753
      ],
      "type": "VEC3"
    },
    {
      "bufferView": 2,
      "byteOffset": 11592,
      "componentType": 5126,
      "count": 322,
      "max": [
        1,
        1,
        1
      ],
      "min": [
        -1,
        -1,
        -1
      ],
      "type": "VEC3"
    },
    {
      "bufferView": 3,
      "byteOffset": 5152,
      "componentType": 5126,
      "count": 322,
      "max": [
        1,
        1,
        0.68595868349075317,
        1
      ],
      "min": [
        -1,
        -1,
        -0.68596214056015015,
        1
      ],
      "type": "VEC4"
    },
    {
      "bufferView": 1,
      "byteOffset": 5152,
      "componentType": 5126,
      "count": 322,
      "max": [
        0.99241805076599121,
        0.99242871999740601
      ],
      "min": [
        0.0075819492340087891,
        0.0075925709679722786
      ],
      "type": "VEC2"
    },
    {
      "bufferView": 1,
      "byteOffset": 7728,
      "componentType": 5126,
      "count": 322,
      "max": [
        0.98794513940811157,
        0.98620480298995972
      ],
      "min": [
        0.013810503296554089,
        0.013821081258356571
      ],
      "type": "VEC2"
    },
    {
      "bufferView": 0,
      "byteOffset": 5376,
      "componentType": 5125,
      "count": 1344,
      "max": [
        321
      ],
      "min": [
        0
      ],
      "type": "SCALAR"
    },
    {
      "bufferView": 2,
      "byteOffset": 15456,
      "componentType": 5126,
      "count": 322,
      "max": [
        12.49409294128418,
        12.49409294128418,
        0.088527247309684753
      ],
      "min": [
        -12.49409294128418,
        -12.49409294128418,
        -0.088527247309684753
      ],
      "type": "VEC3"
    },
    {
      "bufferView": 2,
      "byteOffset": 19320,
      "componentType": 5126,
      "count": 322,
      "max": [
        1,
        1,
        1
      ],
      "min": [
        -1,
        -1,
        -1
      ],
      "type": "VEC3"
    },
    {
      "bufferView": 3,
      "byteOffset": 10304,
      "componentType": 5126,
      "count": 322,
      "max": [
        1,
        1,
        0.68595868349075317,
        1
      ],
      "min": [
        -1,
        -1,
        -0.68596214056015015,
        1
      ],
      "type": "VEC4"
    },
    {
      "bufferView": 1,
      "byteOffset": 10304,
      "componentType": 5126,
      "count": 322,
      "max": [
        0.99241805076599121,
        0.99242871999740601
      ],
      "min": [
        0.0075819492340087891,
        0.0075925709679722786
      ],
      "type": "VEC2"
    },
    {
      "bufferView": 1,
      "byteOffset": 12880,
      "componentType": 5126,
      "count": 322,
      "max": [
        0.98794513940811157,
        0.98620480298995972
      ],
      "min": [
        0.013810503296554089,
        0.013821081258356571
      ],
      "type": "VEC2"
    },
    {
      "bufferView": 0,
      "byteOffset": 10752,
      "componentType": 5125,
      "count": 1344,
      "max": [
        321
      ],
      "min": [
        0
      ],
      "type": "SCALAR"
    }
  ],
  "asset": {
    "extras": {
      "author": "Aleksey Kozhemyakin (https://sketchfab.com/aleksey-k)",
      "license": "CC-BY-4.0 (http://creativecommons.org/licenses/by/4.0/)",
      "source": "https://sketchfab.com/3d-models/gramophone-disk-9611c845afef4c048bfc0f93d1eed67e",
      "title": "Gramophone disk"
    },
    "generator": "Sketchfab-6.87.0",
    "version": "2.0"
  },
  "bufferViews": [
    {
      "buffer": 0,
      "byteLength": 16128,
      "byteOffset": 0,
      "name": "floatBufferViews",
      "target": 34963
    },
    {
      "buffer": 0,
      "byteLength": 15456,
      "byteOffset": 16128,
      "byteStride": 8,
      "name": "floatBufferViews",
      "target": 34962
    },
    {
      "buffer": 0,
      "byteLength": 23184,
      "byteOffset": 31584,
      "byteStride": 12,
      "name": "floatBufferViews",
      "target": 34962
    },
    {
      "buffer": 0,
      "byteLength": 15456,
      "byteOffset": 54768,
      "byteStride": 16,
      "name": "floatBufferViews",
      "target": 34962
    }
  ],
  "buffers": [
    {
      "byteLength": 70224,
      "uri": "scene.bin"
    }
  ],
  "images": [
    {
      "uri": "textures/M_disk_uk_baseColor.png"
    },
    {
      "uri": "textures/M_disk_uk_metallicRoughness.png"
    },
    {
      "uri": "textures/M_disk_uk_normal.png"
    },
    {
      "uri": "textures/M_disk_old_baseColor.png"
    },
    {
      "uri": "textures/M_disk_ussr_baseColor.png"
    }
  ],
  "materials": [
    {
      "doubleSided": false,
      "name": "M_disk_uk",
      "normalTexture": {
        "index": 2,
        "scale": 1,
        "texCoord": 0
      },
      "occlusionTexture": {
        "index": 1,
        "strength": 1,
        "texCoord": 0
      },
      "pbrMetallicRoughness": {
        "baseColorFactor": [
          1,
          1,
          1,
          1
        ],
        "baseColorTexture": {
          "index": 0,
          "texCoord": 0
        },
        "metallicFactor": 0,
        "metallicRoughnessTexture": {
          "index": 1,
          "texCoord": 0
        },
        "roughnessFactor": 1
      }
    },
    {
      "doubleSided": false,
      "name": "M_disk_old",
      "normalTexture": {
        "index": 2,
        "scale": 1,
        "texCoord": 0
      },
      "occlusionTexture": {
        "index": 1,
        "strength": 1,
        "texCoord": 0
      },
      "pbrMetallicRoughness": {
        "baseColorFactor": [
          1,
          1,
          1,
          1
        ],
        "baseColorTexture": {
          "index": 3,
          "texCoord": 0
        },
        "metallicFactor": 0,
        "metallicRoughnessTexture": {
          "index": 1,
          "texCoord": 0
        },
        "roughnessFactor": 1
      }
    },
    {
      "doubleSided": false,
      "name": "M_disk_ussr",
      "normalTexture": {
        "index": 2,
        "scale": 1,
        "texCoord": 0
      },
      "occlusionTexture": {
        "index": 1,
        "strength": 1,
        "texCoord": 0
      },
      "pbrMetallicRoughness": {
        "baseColorFactor": [
          1,
          1,
          1,
          1
        ],
        "baseColorTexture": {
          "index": 4,
          "texCoord": 0
        },
        "metallicFactor": 0,
        "metallicRoughnessTexture": {
          "index": 1,
          "texCoord": 0
        },
        "roughnessFactor": 1
      }
    }
  ],
  "meshes": [
    {
      "name": "disk_uk_M_disk_uk_0",
      "primitives": [
        {
          "attributes": {
            "NORMAL": 1,
            "POSITION": 0,
            "TANGENT": 2,
            "TEXCOORD_0": 3,
            "TEXCOORD_1": 4
          },
          "indices": 5,
          "material": 0,
          "mode": 4
        }
      ]
    },
    {
      "name": "disk_uk001_M_disk_old_0",
      "primitives": [
        {
          "attributes": {
            "NORMAL": 7,
            "POSITION": 6,
            "TANGENT": 8,
            "TEXCOORD_0": 9,
            "TEXCOORD_1": 10
          },
          "indices": 11,
          "material": 1,
          "mode": 4
        }
      ]
    },
    {
      "name": "disk_uk002_M_disk_ussr_0",
      "primitives": [
        {
          "attributes": {
            "NORMAL": 13,
            "POSITION": 12,
            "TANGENT": 14,
            "TEXCOORD_0": 15,
            "TEXCOORD_1": 16
          },
          "indices": 17,
          "material": 2,
          "mode": 4
        }
      ]
    }
  ],
  "nodes": [
    {
      "children": [
        1
      ],
      "name": "RootNode (gltf orientation matrix)",
      "rotation": [
        -0.70710678118654746,
        -0,
        -0,
        0.70710678118654757
      ]
    },
    {
      "children": [
        2
      ],
      "name": "RootNode (model correction matrix)"
    },
    {
      "children": [
        3
      ],
      "matrix": [
        1,
        0,
        0,
        0,
        0,
        0,
        1,
        0,
        0,
        -1,
        0,
        0,
        0,
        0,
        0,
        1
      ],
      "name": "229f55d012f544228a8a7c687ded8775.fbx"
    },
    {
      "children": [
        4,
        6,
        8
      ],
      "name": "RootNode"
    },
    {
      "children": [
        5
      ],
      "matrix": [
        0.74625051213330185,
        0,
        0.66566521100383835,
        0,
        0.66566521100383835,
        0,
        -0.74625051213330185,
        0,
        0,
        1,
        0,
        0,
        -27.538352966308594,
        0,
        0,
        1
      ],
      "name": "disk_uk"
    },
    {
      "mesh": 0,
      "name": "disk_uk_M_disk_uk_0"
    },
    {
      "children": [
        7
      ],
      "matrix": [
        0.92952555721697339,
        -5.5511151231257827e-17,
        -0.36875769616439896,
        0,
        -0.36875769616439896,
        -2.2204460492503131e-16,
        -0.92952555721697339,
        0,
        -5.5511151231257827e-17,
        1,
        -2.2204460492503131e-16,
        0,
        0.37000656127929688,
        0,
        6.5661392211914062,
        1
      ],
      "name": "disk_uk001"
    },
    {
      "mesh": 1,
      "name": "disk_uk001_M_disk_old_0"
    },
    {
      "children": [
        9
      ],
      "matrix": [
        0.18083510075083686,
        -5.5511151231257827e-17,
        0.98351342966755406,
        0,
        0.98351342966755406,
        0,
        -0.18083510075083686,
        0,
        5.5511151231257827e-17,
        1,
        0,
        0,
        29.117271423339844,
        0,
        0,
        1
      ],
      "name": "disk_uk002"
    },
    {
      "mesh": 2,
      "name": "disk_uk002_M_disk_ussr_0"
    }
  ],
  "samplers": [
    {
      "magFilter": 9729,
      "minFilter": 9987,
      "wrapS": 10497,
      "wrapT": 10497
    }
  ],
  "scene": 0,
  "scenes": [
    {
      "name": "OSG_Scene",
      "nodes": [
        0
      ]
    }
  ],
  "textures": [
    {
      "sampler": 0,
      "source": 0
    },
    {
      "sampler": 0,
      "source": 1
    },
    {
      "sampler": 0,
      "source": 2
    },
    {
      "sampler": 0,
      "source": 3
    },
    {
      "sampler": 0,
      "source": 4
    }
  ]
}

