{
  "accessors": [
    {
      "bufferView": 2,
      "componentType": 5126,
      "count": 422,
      "max": [
        0.87534761428833008,
        1.3392293453216553,
        0.2275354266166687
      ],
      "min": [
        -0.90529823303222656,
        -1.1661888360977173,
        -0.2707330584526062
      ],
      "type": "VEC3"
    },
    {
      "bufferView": 2,
      "byteOffset": 5064,
      "componentType": 5126,
      "count": 422,
      "max": [
        0.70710676908493042,
        0.89443337917327881,
        0.94868946075439453
      ],
      "min": [
        -0.70710676908493042,
        -0.81646603345870972,
        -1
      ],
      "type": "VEC3"
    },
    {
      "bufferView": 1,
      "componentType": 5126,
      "count": 422,
      "max": [
        0.99968492984771729,
        0.99558216333389282
      ],
      "min": [
        0.00031511281849816442,
        0.00031511281849816442
      ],
      "type": "VEC2"
    },
    {
      "bufferView": 0,
      "componentType": 5125,
      "count": 1407,
      "max": [
        421
      ],
      "min": [
        0
      ],
      "type": "SCALAR"
    },
    {
      "bufferView": 2,
      "byteOffset": 10128,
      "componentType": 5126,
      "count": 252,
      "max": [
        0.21458053588867188,
        0.24116754531860352,
        0.048055171966552734
      ],
      "min": [
        -0.57202434539794922,
        -0.51835012435913086,
        -0.018924474716186523
      ],
      "type": "VEC3"
    },
    {
      "bufferView": 2,
      "byteOffset": 13152,
      "componentType": 5126,
      "count": 252,
      "max": [
        1,
        1,
        1
      ],
      "min": [
        -1,
        -1,
        -1
      ],
      "type": "VEC3"
    },
    {
      "bufferView": 1,
      "byteOffset": 3376,
      "componentType": 5126,
      "count": 252,
      "max": [
        0.55574393272399902,
        0.99988621473312378
      ],
      "min": [
        0.00011376034672139212,
        0.00011376034672139212
      ],
      "type": "VEC2"
    },
    {
      "bufferView": 0,
      "byteOffset": 5628,
      "componentType": 5125,
      "count": 378,
      "max": [
        251
      ],
      "min": [
        0
      ],
      "type": "SCALAR"
    },
    {
      "bufferView": 2,
      "byteOffset": 16176,
      "componentType": 5126,
      "count": 248,
      "max": [
        0.81394100189208984,
        -0.34544849395751953,
        0.28381937742233276
      ],
      "min": [
        -0.0056390762329101562,
        -1.1049661636352539,
        0.21753542125225067
      ],
      "type": "VEC3"
    },
    {
      "bufferView": 2,
      "byteOffset": 19152,
      "componentType": 5126,
      "count": 248,
      "max": [
        1,
        1,
        1
      ],
      "min": [
        -1,
        -1,
        -1
      ],
      "type": "VEC3"
    },
    {
      "bufferView": 1,
      "byteOffset": 5392,
      "componentType": 5126,
      "count": 248,
      "max": [
        0.53845471143722534,
        0.99988961219787598
      ],
      "min": [
        0.00011034702038159594,
        0.00011034702038159594
      ],
      "type": "VEC2"
    },
    {
      "bufferView": 0,
      "byteOffset": 7140,
      "componentType": 5125,
      "count": 372,
      "max": [
        247
      ],
      "min": [
        0
      ],
      "type": "SCALAR"
    },
    {
      "bufferView": 3,
      "componentType": 5126,
      "count": 51,
      "max": [
        10.416666984558105
      ],
      "min": [
        0.041666667908430099
      ],
      "type": "SCALAR"
    },
    {
      "bufferView": 4,
      "componentType": 5126,
      "count": 51,
      "max": [
        6.8642401695251465,
        -0.91828697919845581,
        1.657225489616394
      ],
      "min": [
        6.1880874633789062,
        -0.91828697919845581,
        1.1097656488418579
      ],
      "type": "VEC3"
    },
    {
      "bufferView": 3,
      "byteOffset": 204,
      "componentType": 5126,
      "count": 51,
      "max": [
        10.416666984558105
      ],
      "min": [
        0.041666667908430099
      ],
      "type": "SCALAR"
    },
    {
      "bufferView": 5,
      "componentType": 5126,
      "count": 51,
      "max": [
        0,
        0,
        -0,
        1
      ],
      "min": [
        0,
        -0.7549704909324646,
        -0,
        0.65575873851776123
      ],
      "type": "VEC4"
    },
    {
      "bufferView": 3,
      "byteOffset": 408,
      "componentType": 5126,
      "count": 50,
      "max": [
        2.0833332538604736
      ],
      "min": [
        0.041666667908430099
      ],
      "type": "SCALAR"
    },
    {
      "bufferView": 4,
      "byteOffset": 612,
      "componentType": 5126,
      "count": 50,
      "max": [
        6.8642401695251465,
        -0.91828697919845581,
        1.657225489616394
      ],
      "min": [
        6.1880874633789062,
        -0.91828697919845581,
        1.1097656488418579
      ],
      "type": "VEC3"
    },
    {
      "bufferView": 3,
      "byteOffset": 608,
      "componentType": 5126,
      "count": 50,
      "max": [
        2.0833332538604736
      ],
      "min": [
        0.041666667908430099
      ],
      "type": "SCALAR"
    },
    {
      "bufferView": 5,
      "byteOffset": 816,
      "componentType": 5126,
      "count": 50,
      "max": [
        0,
        0,
        -0,
        1
      ],
      "min": [
        0,
        -0.75497055053710938,
        -0,
        0.65575873851776123
      ],
      "type": "VEC4"
    }
  ],
  "animations": [
    {
      "channels": [
        {
          "sampler": 0,
          "target": {
            "node": 6,
            "path": "translation"
          }
        },
        {
          "sampler": 1,
          "target": {
            "node": 6,
            "path": "rotation"
          }
        }
      ],
      "name": "Action",
      "samplers": [
        {
          "input": 12,
          "interpolation": "LINEAR",
          "output": 13
        },
        {
          "input": 14,
          "interpolation": "LINEAR",
          "output": 15
        }
      ]
    },
    {
      "channels": [
        {
          "sampler": 0,
          "target": {
            "node": 6,
            "path": "translation"
          }
        },
        {
          "sampler": 1,
          "target": {
            "node": 6,
            "path": "rotation"
          }
        }
      ],
      "name": "Cube.001Action",
      "samplers": [
        {
          "input": 16,
          "interpolation": "LINEAR",
          "output": 17
        },
        {
          "input": 18,
          "interpolation": "LINEAR",
          "output": 19
        }
      ]
    }
  ],
  "asset": {
    "extras": {
      "author": "Valo Niskanen (https://sketchfab.com/Valo.Niskanen)",
      "license": "CC-BY-NC-4.0 (http://creativecommons.org/licenses/by-nc/4.0/)",
      "source": "https://sketchfab.com/3d-models/bookshelf-3b5ddd7b35f747d19a1cc85d7c07e64a",
      "title": "Bookshelf"
    },
    "generator": "Sketchfab-9.55.1",
    "version": "2.0"
  },
  "bufferViews": [
    {
      "buffer": 0,
      "byteLength": 8628,
      "byteOffset": 0,
      "name": "floatBufferViews",
      "target": 34963
    },
    {
      "buffer": 0,
      "byteLength": 7376,
      "byteOffset": 8628,
      "byteStride": 8,
      "name": "floatBufferViews",
      "target": 34962
    },
    {
      "buffer": 0,
      "byteLength": 22128,
      "byteOffset": 16004,
      "byteStride": 12,
      "name": "floatBufferViews",
      "target": 34962
    },
    {
      "buffer": 0,
      "byteLength": 808,
      "byteOffset": 38132,
      "name": "floatBufferViews"
    },
    {
      "buffer": 0,
      "byteLength": 1212,
      "byteOffset": 38940,
      "byteStride": 12,
      "name": "floatBufferViews"
    },
    {
      "buffer": 0,
      "byteLength": 1616,
      "byteOffset": 40152,
      "byteStride": 16,
      "name": "floatBufferViews"
    }
  ],
  "buffers": [
    {
      "byteLength": 41768,
      "uri": "scene.bin"
    }
  ],
  "images": [
    {
      "uri": "textures/Material.001_baseColor.png"
    },
    {
      "uri": "textures/Material_baseColor.png"
    },
    {
      "uri": "textures/None_baseColor.png"
    }
  ],
  "materials": [
    {
      "doubleSided": true,
      "emissiveFactor": [
        0,
        0,
        0
      ],
      "name": "Material.001",
      "pbrMetallicRoughness": {
        "baseColorFactor": [
          1,
          1,
          1,
          1
        ],
        "baseColorTexture": {
          "index": 0,
          "texCoord": 0
        },
        "metallicFactor": 0,
        "roughnessFactor": 1
      }
    },
    {
      "doubleSided": true,
      "emissiveFactor": [
        0,
        0,
        0
      ],
      "name": "Material",
      "pbrMetallicRoughness": {
        "baseColorFactor": [
          1,
          1,
          1,
          1
        ],
        "baseColorTexture": {
          "index": 1,
          "texCoord": 0
        },
        "metallicFactor": 0,
        "roughnessFactor": 1
      }
    },
    {
      "doubleSided": true,
      "emissiveFactor": [
        0,
        0,
        0
      ],
      "name": "None",
      "pbrMetallicRoughness": {
        "baseColorFactor": [
          1,
          1,
          1,
          1
        ],
        "baseColorTexture": {
          "index": 2,
          "texCoord": 0
        },
        "metallicFactor": 0,
        "roughnessFactor": 1
      }
    }
  ],
  "meshes": [
    {
      "primitives": [
        {
          "attributes": {
            "NORMAL": 1,
            "POSITION": 0,
            "TEXCOORD_0": 2
          },
          "indices": 3,
          "material": 0,
          "mode": 4
        }
      ]
    },
    {
      "primitives": [
        {
          "attributes": {
            "NORMAL": 5,
            "POSITION": 4,
            "TEXCOORD_0": 6
          },
          "indices": 7,
          "material": 1,
          "mode": 4
        }
      ]
    },
    {
      "primitives": [
        {
          "attributes": {
            "NORMAL": 9,
            "POSITION": 8,
            "TEXCOORD_0": 10
          },
          "indices": 11,
          "material": 2,
          "mode": 4
        }
      ]
    }
  ],
  "nodes": [
    {
      "children": [
        1
      ],
      "name": "RootNode (gltf orientation matrix)",
      "rotation": [
        -0.70710678118654746,
        -0,
        -0,
        0.70710678118654757
      ]
    },
    {
      "children": [
        2
      ],
      "name": "RootNode (model correction matrix)"
    },
    {
      "children": [
        3
      ],
      "name": "root"
    },
    {
      "children": [
        4,
        6,
        8
      ],
      "matrix": [
        1,
        0,
        0,
        0,
        0,
        2.2204460492503131e-16,
        1,
        0,
        0,
        -1,
        2.2204460492503131e-16,
        0,
        0,
        0,
        0,
        1
      ],
      "name": "GLTF_SceneRootNode"
    },
    {
      "children": [
        5
      ],
      "matrix": [
        1,
        0,
        0,
        0,
        0,
        1,
        0,
        0,
        0,
        0,
        1,
        0,
        7.1439824104309082,
        -0.33167052268981934,
        0.87370496988296509,
        1
      ],
      "name": "Cube_0"
    },
    {
      "mesh": 0,
      "name": ""
    },
    {
      "children": [
        7
      ],
      "name": "Cube.001_1",
      "translation": [
        6.8642401695251465,
        -0.91828697919845581,
        1.1097656488418579
      ]
    },
    {
      "mesh": 1,
      "name": ""
    },
    {
      "children": [
        9
      ],
      "matrix": [
        1,
        0,
        0,
        0,
        0,
        1,
        0,
        0,
        0,
        0,
        1,
        0,
        7.1439824104309082,
        -0.33167052268981934,
        0.87370496988296509,
        1
      ],
      "name": "Cube.002_2"
    },
    {
      "mesh": 2,
      "name": ""
    }
  ],
  "samplers": [
    {
      "magFilter": 9729,
      "minFilter": 9987,
      "wrapS": 10497,
      "wrapT": 10497
    }
  ],
  "scene": 0,
  "scenes": [
    {
      "name": "OSG_Scene",
      "nodes": [
        0
      ]
    }
  ],
  "textures": [
    {
      "sampler": 0,
      "source": 0
    },
    {
      "sampler": 0,
      "source": 1
    },
    {
      "sampler": 0,
      "source": 2
    }
  ]
}

